<svg width="40" height="40" viewBox="0 0 40 40" fill="none" xmlns="http://www.w3.org/2000/svg">
<g id="FirstAid">
<path id="Vector" d="M30 18.0769V21.9231C30 22.3311 29.8379 22.7224 29.5494 23.0109C29.2609 23.2995 28.8696 23.4615 28.4615 23.4615H23.4615V28.4615C23.4615 28.8696 23.2995 29.2609 23.0109 29.5494C22.7224 29.8379 22.3311 30 21.9231 30H18.0769C17.6689 30 17.2776 29.8379 16.9891 29.5494C16.7005 29.2609 16.5385 28.8696 16.5385 28.4615V23.4615H11.5385C11.1304 23.4615 10.7391 23.2995 10.4506 23.0109C10.1621 22.7224 10 22.3311 10 21.9231V18.0769C10 17.6689 10.1621 17.2776 10.4506 16.9891C10.7391 16.7005 11.1304 16.5385 11.5385 16.5385H16.5385V11.5385C16.5385 11.1304 16.7005 10.7391 16.9891 10.4506C17.2776 10.1621 17.6689 10 18.0769 10H21.9231C22.3311 10 22.7224 10.1621 23.0109 10.4506C23.2995 10.7391 23.4615 11.1304 23.4615 11.5385V16.5385H28.4615C28.8696 16.5385 29.2609 16.7005 29.5494 16.9891C29.8379 17.2776 30 17.6689 30 18.0769Z" fill="white"/>
</g>
</svg>
