<svg width="36" height="36" viewBox="0 0 36 36" fill="none" xmlns="http://www.w3.org/2000/svg">
<g id="Funnel">
<path id="Vector" opacity="0.2" d="M31.2047 8.63156L21.375 19.125V27.3727C21.3751 27.5579 21.3295 27.7403 21.2422 27.9037C21.1548 28.0671 21.0285 28.2064 20.8744 28.3092L16.3744 31.3087C16.2051 31.4217 16.0084 31.4866 15.8052 31.4966C15.6019 31.5065 15.3998 31.4612 15.2203 31.3654C15.0408 31.2696 14.8906 31.1269 14.7858 30.9525C14.6809 30.778 14.6254 30.5785 14.625 30.375V19.125L4.79532 8.63156C4.64894 8.47046 4.55243 8.27035 4.5175 8.05549C4.48258 7.84064 4.51074 7.62026 4.59856 7.42109C4.68639 7.22192 4.83011 7.0525 5.01231 6.93338C5.1945 6.81427 5.40734 6.75056 5.62501 6.75H30.375C30.5927 6.75056 30.8055 6.81427 30.9877 6.93338C31.1699 7.0525 31.3136 7.22192 31.4015 7.42109C31.4893 7.62026 31.5174 7.84064 31.4825 8.05549C31.4476 8.27035 31.3511 8.47046 31.2047 8.63156Z" fill="#334666"/>
<path id="Vector_2" d="M32.4281 6.96519C32.2549 6.56513 31.968 6.2248 31.603 5.98652C31.2379 5.74824 30.8109 5.62254 30.375 5.62504H5.62496C5.18949 5.62589 4.76363 5.7531 4.39903 5.99123C4.03443 6.22936 3.74677 6.56818 3.57095 6.96658C3.39512 7.36498 3.33869 7.80584 3.40849 8.23568C3.47829 8.66552 3.67133 9.06587 3.96418 9.38816L3.97543 9.40082L13.5 19.5708V30.375C13.4999 30.7823 13.6103 31.1819 13.8195 31.5313C14.0286 31.8807 14.3287 32.1667 14.6877 32.359C15.0466 32.5513 15.4511 32.6425 15.8578 32.623C16.2646 32.6035 16.6584 32.4739 16.9973 32.2482L21.4973 29.2472C21.8058 29.0417 22.0587 28.7632 22.2337 28.4365C22.4086 28.1097 22.5001 27.7447 22.5 27.3741V19.5708L32.0259 9.40082L32.0372 9.38816C32.3331 9.06734 32.528 8.66646 32.5975 8.23555C32.6671 7.80465 32.6081 7.36281 32.4281 6.96519ZM20.5565 18.3628C20.3619 18.5692 20.2524 18.8414 20.25 19.125V27.3741L15.75 30.375V19.125C15.7501 18.8394 15.6415 18.5644 15.4462 18.3558L5.62496 7.87504H30.375L20.5565 18.3628Z" fill="#334666"/>
</g>
</svg>
