<svg width="60" height="60" viewBox="0 0 60 60" fill="none" xmlns="http://www.w3.org/2000/svg">
<g id="CalendarBlank">
<path id="Vector" opacity="0.2" d="M50.625 11.25V20.625H9.375V11.25C9.375 10.7527 9.57254 10.2758 9.92418 9.92418C10.2758 9.57254 10.7527 9.375 11.25 9.375H48.75C49.2473 9.375 49.7242 9.57254 50.0758 9.92418C50.4275 10.2758 50.625 10.7527 50.625 11.25Z" fill="#334666"/>
<path id="Vector_2" d="M48.75 7.5H43.125V5.625C43.125 5.12772 42.9275 4.65081 42.5758 4.29917C42.2242 3.94754 41.7473 3.75 41.25 3.75C40.7527 3.75 40.2758 3.94754 39.9242 4.29917C39.5725 4.65081 39.375 5.12772 39.375 5.625V7.5H20.625V5.625C20.625 5.12772 20.4275 4.65081 20.0758 4.29917C19.7242 3.94754 19.2473 3.75 18.75 3.75C18.2527 3.75 17.7758 3.94754 17.4242 4.29917C17.0725 4.65081 16.875 5.12772 16.875 5.625V7.5H11.25C10.2554 7.5 9.30161 7.89509 8.59835 8.59835C7.89509 9.30161 7.5 10.2554 7.5 11.25V48.75C7.5 49.7446 7.89509 50.6984 8.59835 51.4016C9.30161 52.1049 10.2554 52.5 11.25 52.5H48.75C49.7446 52.5 50.6984 52.1049 51.4016 51.4016C52.1049 50.6984 52.5 49.7446 52.5 48.75V11.25C52.5 10.2554 52.1049 9.30161 51.4016 8.59835C50.6984 7.89509 49.7446 7.5 48.75 7.5ZM16.875 11.25V13.125C16.875 13.6223 17.0725 14.0992 17.4242 14.4508C17.7758 14.8025 18.2527 15 18.75 15C19.2473 15 19.7242 14.8025 20.0758 14.4508C20.4275 14.0992 20.625 13.6223 20.625 13.125V11.25H39.375V13.125C39.375 13.6223 39.5725 14.0992 39.9242 14.4508C40.2758 14.8025 40.7527 15 41.25 15C41.7473 15 42.2242 14.8025 42.5758 14.4508C42.9275 14.0992 43.125 13.6223 43.125 13.125V11.25H48.75V18.75H11.25V11.25H16.875ZM48.75 48.75H11.25V22.5H48.75V48.75Z" fill="#334666"/>
</g>
</svg>
