<svg width="40" height="40" viewBox="0 0 40 40" fill="none" xmlns="http://www.w3.org/2000/svg">
<g id="CaretDown">
<path id="Vector" d="M33.8265 16.3266L21.3265 28.8266C21.1523 29.0014 20.9453 29.1401 20.7174 29.2347C20.4895 29.3294 20.2451 29.3781 19.9984 29.3781C19.7516 29.3781 19.5072 29.3294 19.2793 29.2347C19.0514 29.1401 18.8444 29.0014 18.6702 28.8266L6.17024 16.3266C5.818 15.9744 5.62012 15.4966 5.62012 14.9985C5.62012 14.5003 5.818 14.0226 6.17024 13.6703C6.52249 13.3181 7.00023 13.1202 7.49837 13.1202C7.99651 13.1202 8.47425 13.3181 8.8265 13.6703L19.9999 24.8438L31.1734 13.6688C31.5256 13.3165 32.0034 13.1187 32.5015 13.1187C32.9996 13.1187 33.4774 13.3165 33.8296 13.6688C34.1819 14.021 34.3798 14.4988 34.3798 14.9969C34.3798 15.495 34.1819 15.9728 33.8296 16.325L33.8265 16.3266Z" fill="#334666"/>
</g>
</svg>
