<svg width="75" height="75" viewBox="0 0 75 75" fill="none" xmlns="http://www.w3.org/2000/svg">
<g id="CirclesFour">
<path id="Vector" d="M35.4545 25.2273C35.4545 27.25 34.8547 29.2274 33.7309 30.9092C32.6072 32.5911 31.0099 33.902 29.1411 34.676C27.2723 35.4501 25.2159 35.6527 23.232 35.258C21.2481 34.8634 19.4258 33.8894 17.9955 32.459C16.5652 31.0287 15.5911 29.2064 15.1965 27.2225C14.8019 25.2386 15.0044 23.1823 15.7785 21.3135C16.5526 19.4447 17.8634 17.8474 19.5453 16.7236C21.2272 15.5998 23.2045 15 25.2273 15C27.9397 15 30.5411 16.0775 32.459 17.9955C34.377 19.9135 35.4545 22.5148 35.4545 25.2273ZM49.7727 35.4545C51.7955 35.4545 53.7728 34.8547 55.4547 33.7309C57.1366 32.6072 58.4474 31.0099 59.2215 29.1411C59.9956 27.2723 60.1981 25.2159 59.8035 23.232C59.4089 21.2481 58.4348 19.4258 57.0045 17.9955C55.5742 16.5652 53.7519 15.5911 51.768 15.1965C49.7841 14.8019 47.7277 15.0044 45.8589 15.7785C43.9901 16.5526 42.3928 17.8634 41.2691 19.5453C40.1453 21.2272 39.5455 23.2045 39.5455 25.2273C39.5455 27.9397 40.623 30.5411 42.541 32.459C44.4589 34.377 47.0603 35.4545 49.7727 35.4545ZM25.2273 39.5455C23.2045 39.5455 21.2272 40.1453 19.5453 41.2691C17.8634 42.3928 16.5526 43.9901 15.7785 45.8589C15.0044 47.7277 14.8019 49.7841 15.1965 51.768C15.5911 53.7519 16.5652 55.5742 17.9955 57.0045C19.4258 58.4348 21.2481 59.4089 23.232 59.8035C25.2159 60.1981 27.2723 59.9956 29.1411 59.2215C31.0099 58.4474 32.6072 57.1366 33.7309 55.4547C34.8547 53.7728 35.4545 51.7955 35.4545 49.7727C35.4545 47.0603 34.377 44.4589 32.459 42.541C30.5411 40.623 27.9397 39.5455 25.2273 39.5455ZM49.7727 39.5455C47.75 39.5455 45.7726 40.1453 44.0908 41.2691C42.4089 42.3928 41.098 43.9901 40.324 45.8589C39.5499 47.7277 39.3473 49.7841 39.742 51.768C40.1366 53.7519 41.1106 55.5742 42.541 57.0045C43.9713 58.4348 45.7936 59.4089 47.7775 59.8035C49.7614 60.1981 51.8177 59.9956 53.6865 59.2215C55.5553 58.4474 57.1526 57.1366 58.2764 55.4547C59.4002 53.7728 60 51.7955 60 49.7727C60 47.0603 58.9225 44.4589 57.0045 42.541C55.0865 40.623 52.4852 39.5455 49.7727 39.5455Z" fill="#D9D9D9"/>
</g>
</svg>
