<svg width="75" height="75" viewBox="0 0 75 75" fill="none" xmlns="http://www.w3.org/2000/svg">
<g id="GearSix">
<path id="Vector" d="M59.7649 33.5932C59.72 33.3658 59.6266 33.1507 59.4911 32.9626C59.3555 32.7745 59.1811 32.6178 58.9797 32.5031L52.9578 29.0712L52.9336 22.2843C52.9329 22.0506 52.8814 21.8198 52.7828 21.6079C52.6842 21.396 52.5407 21.208 52.3623 21.0569C50.1779 19.2092 47.6624 17.7932 44.9496 16.8843C44.736 16.8119 44.5095 16.7852 44.2849 16.8057C44.0603 16.8262 43.8425 16.8935 43.6455 17.0034L37.5712 20.3988L31.4908 16.9973C31.2937 16.8869 31.0756 16.819 30.8506 16.7982C30.6256 16.7773 30.3988 16.8039 30.1847 16.8762C27.4735 17.791 24.9607 19.2124 22.78 21.065C22.6019 21.2158 22.4586 21.4035 22.36 21.615C22.2614 21.8266 22.2098 22.057 22.2087 22.2904L22.1785 29.0834L16.1566 32.5152C15.9552 32.6299 15.7808 32.7866 15.6452 32.9747C15.5097 33.1628 15.4163 33.3779 15.3713 33.6053C14.8202 36.3747 14.8202 39.2256 15.3713 41.9951C15.4163 42.2225 15.5097 42.4376 15.6452 42.6257C15.7808 42.8138 15.9552 42.9705 16.1566 43.0852L22.1785 46.517L22.2027 53.3059C22.2034 53.5397 22.2549 53.7705 22.3535 53.9824C22.4521 54.1943 22.5956 54.3823 22.774 54.5333C24.9584 56.3811 27.4739 57.7971 30.1867 58.706C30.4003 58.7783 30.6268 58.8051 30.8514 58.7846C31.076 58.7641 31.2938 58.6967 31.4908 58.5869L37.5712 55.1813L43.6516 58.5829C43.8922 58.7169 44.1634 58.7865 44.4389 58.7847C44.6152 58.7847 44.7904 58.756 44.9577 58.7C47.6682 57.7856 50.1808 56.3656 52.3623 54.5152C52.5404 54.3643 52.6837 54.1767 52.7824 53.9651C52.881 53.7536 52.9326 53.5232 52.9336 53.2898L52.9639 46.4968L58.9857 43.065C59.1872 42.9503 59.3616 42.7936 59.4971 42.6055C59.6326 42.4174 59.726 42.2023 59.771 41.9749C60.3191 39.2077 60.317 36.3596 59.7649 33.5932ZM37.5712 45.865C35.9741 45.865 34.4129 45.3914 33.085 44.5041C31.7571 43.6168 30.7221 42.3557 30.111 40.8802C29.4998 39.4047 29.3399 37.7811 29.6515 36.2148C29.963 34.6484 30.7321 33.2096 31.8614 32.0803C32.9907 30.951 34.4295 30.1819 35.9958 29.8704C37.5622 29.5588 39.1858 29.7187 40.6613 30.3299C42.1368 30.941 43.3979 31.976 44.2852 33.3039C45.1725 34.6318 45.646 36.193 45.646 37.7901C45.646 39.9317 44.7953 41.9855 43.281 43.4999C41.7666 45.0142 39.7128 45.865 37.5712 45.865Z" fill="#F1F1F1"/>
</g>
</svg>
