<svg width="75" height="75" viewBox="0 0 75 75" fill="none" xmlns="http://www.w3.org/2000/svg">
<g id="SlidersHorizontal">
<path id="Vector" d="M14.7603 26.6302C14.7603 26.1276 14.9599 25.6456 15.3153 25.2902C15.6707 24.9348 16.1526 24.7352 16.6552 24.7352H25.4597C25.8682 23.367 26.7073 22.1671 27.8523 21.314C28.9973 20.4608 30.3871 20 31.815 20C33.2429 20 34.6327 20.4608 35.7777 21.314C36.9227 22.1671 37.7618 23.367 38.1703 24.7352H58.3446C58.8472 24.7352 59.3292 24.9348 59.6846 25.2902C60.0399 25.6456 60.2396 26.1276 60.2396 26.6302C60.2396 27.1327 60.0399 27.6147 59.6846 27.9701C59.3292 28.3255 58.8472 28.5251 58.3446 28.5251H38.1703C37.7618 29.8934 36.9227 31.0933 35.7777 31.9464C34.6327 32.7995 33.2429 33.2603 31.815 33.2603C30.3871 33.2603 28.9973 32.7995 27.8523 31.9464C26.7073 31.0933 25.8682 29.8934 25.4597 28.5251H16.6552C16.1526 28.5251 15.6707 28.3255 15.3153 27.9701C14.9599 27.6147 14.7603 27.1327 14.7603 26.6302ZM58.3446 47.4749H53.33C52.9216 46.1066 52.0825 44.9068 50.9375 44.0536C49.7924 43.2005 48.4027 42.7397 46.9748 42.7397C45.5469 42.7397 44.1571 43.2005 43.0121 44.0536C41.8671 44.9068 41.028 46.1066 40.6195 47.4749H16.6552C16.1526 47.4749 15.6707 47.6745 15.3153 48.0299C14.9599 48.3853 14.7603 48.8673 14.7603 49.3698C14.7603 49.8724 14.9599 50.3544 15.3153 50.7098C15.6707 51.0652 16.1526 51.2648 16.6552 51.2648H40.6195C41.028 52.633 41.8671 53.8329 43.0121 54.6861C44.1571 55.5392 45.5469 56 46.9748 56C48.4027 56 49.7924 55.5392 50.9375 54.6861C52.0825 53.8329 52.9216 52.633 53.33 51.2648H58.3446C58.8472 51.2648 59.3292 51.0652 59.6846 50.7098C60.0399 50.3544 60.2396 49.8724 60.2396 49.3698C60.2396 48.8673 60.0399 48.3853 59.6846 48.0299C59.3292 47.6745 58.8472 47.4749 58.3446 47.4749Z" fill="#D9D9D9"/>
</g>
</svg>
